PathFileType	4	(X/Y/Z)	C:\Users\WrightLab\Desktop\Jo\P1.2Trial4.trc
DataRate	CameraRate	NumFrames	NumMarkers	Units	OrigDataRate	OrigDataStartFrame	OrigNumFrames
100.00	100.00	       14	19	mm	100.00	132	       525
Frame#	Time	Headset_Front			Headset_Back			Headset_Left			Headset_Right			Left_Shoulder			Right_Shoulder			Sternum			C7			Left Elbow			Right Elbow			Left Wrist			Right Wrist			Left ASIS			Right ASIS			S2			Left Knee			Right Knee			Left Ankle			Right Ankle			
		X1	Y1	Z1	X2	Y2	Z2	X3	Y3	Z3	X4	Y4	Z4	X5	Y5	Z5	X6	Y6	Z6	X7	Y7	Z7	X8	Y8	Z8	X9	Y9	Z9	X10	Y10	Z10	X11	Y11	Z11	X12	Y12	Z12	X13	Y13	Z13	X14	Y14	Z14	X15	Y15	Z15	X16	Y16	Z16	X17	Y17	Z17	X18	Y18	Z18	X19	Y19	Z19	

132	1.310	-634.20154	1322.95532	-570.26111	-521.14642	1390.63379	-733.15546				-738.99121	1376.52014	-661.69788	-424.08014	1196.29749	-784.05353	-845.83337	1193.22229	-810.59576	-646.88324	1128.13245	-679.00665	-628.38928	1262.53210	-905.10168	-348.84589	914.56653	-839.17291	-903.43073	946.91101	-886.30566	-290.26703	704.70856	-733.88605	-974.96033	695.23944	-860.34576	-515.27014	818.51495	-680.65454	-785.84424	806.25378	-725.49371	-594.85431	863.36700	-978.51312	-454.20401	379.12994	-771.43280	-832.21674	426.60031	-670.73297	-338.90579	123.98755	-1038.67651	-880.71277	88.54633	-662.37836	
133	1.320	-638.77509	1324.56140	-562.50653	-636.92078	1469.67529	-827.02173	-526.85242	1391.93091	-723.37103	-744.29498	1378.13770	-651.40845	-430.44775	1198.60254	-776.59039	-851.89459	1194.99731	-799.39362	-651.79236	1129.65149	-670.13708	-635.26147	1263.66553	-895.00916	-359.29773	917.52728	-834.29401	-911.05127	949.11469	-874.18616	-295.20697	706.28674	-731.89899	-982.17383	696.99817	-845.60864	-522.18683	819.90155	-673.46783	-792.31335	808.00171	-716.55420	-601.26642	865.83551	-969.24750	-462.15872	380.14301	-760.13251	-837.19714	427.18787	-664.01190	-347.75906	130.42293	-1030.44910	-881.18311	88.48000	-661.06689	
134	1.330	-642.83948	1325.60461	-554.52869				-530.06366	1417.48242	-787.51691	-749.31885	1379.69116	-641.53485	-435.71307	1201.35901	-769.30719	-858.40448	1197.54126	-788.25610	-657.11456	1131.52454	-661.42816	-642.13055	1265.67102	-885.98871	-368.74963	919.87604	-829.94598	-918.72406	951.37012	-862.08118	-301.46655	708.53546	-730.75842	-989.46484	699.68640	-831.55908	-527.19159	822.91980	-662.72821	-798.04907	809.48328	-706.94043	-607.44342	868.05029	-959.50964	-470.47916	382.20477	-743.06274	-843.27484	428.69266	-657.28540	-357.98605	136.61856	-1018.58893	-881.83649	88.18803	-660.37067	
135	1.340	-644.81934	1330.10120	-535.44714	-649.52161	1474.13965	-808.96130	-537.67145	1396.26331	-707.42523	-754.05212	1381.71021	-632.14703	-441.88718	1204.41321	-763.27161	-863.46527	1199.89001	-777.71606	-662.14069	1134.76599	-653.84009	-649.16949	1269.08020	-878.30023	-376.39883	923.36230	-826.23254	-926.17896	953.69788	-850.02496	-306.26062	711.54181	-728.80798	-996.36255	701.87646	-816.62177	-532.57715	824.29565	-656.47888	-804.64752	812.62427	-698.27814	-613.43732	870.52100	-950.02252	-477.09518	383.05252	-723.32269	-847.29590	428.00372	-649.81677	-367.68124	143.45724	-1007.18500	-882.86829	87.19164	-657.67694	
136	1.350	-648.30609	1332.49341	-526.08887	-655.49188	1476.16211	-799.57562	-543.12823	1398.36584	-698.48785	-759.25812	1383.83923	-622.92908	-446.63330	1206.87415	-755.15558	-869.64954	1202.28174	-766.47992	-666.35590	1136.80310	-644.55206	-656.00922	1271.99402	-870.19482	-384.59882	925.43372	-821.01263	-933.39288	955.96161	-837.55042	-312.02554	714.40332	-726.98651	-1003.38208	704.28302	-801.83063	-536.64380	827.89276	-647.55646	-809.77734	815.13654	-689.66235	-619.11359	873.45831	-940.86450	-482.92151	383.30063	-703.94910	-851.07800	428.35129	-647.72284	-376.65540	151.86151	-996.20673	-883.02655	85.76213	-657.62836	
137	1.360	-652.23895	1334.50317	-518.04547	-661.12671	1478.34668	-790.76227	-547.70758	1400.89917	-691.72650	-763.99939	1385.40918	-612.98761	-451.81143	1209.66333	-748.76971	-874.84460	1204.18420	-755.24976	-670.41333	1138.75977	-636.51501	-661.70551	1272.17517	-859.44104	-390.92419	929.01282	-816.79529	-940.71307	958.14429	-825.25732	-318.35135	717.28430	-724.35431	-1010.19690	706.54779	-786.42456	-541.16156	830.55365	-641.03046	-815.23138	817.47388	-680.41486	-624.76520	876.68622	-932.66272	-489.15869	385.12305	-684.09070	-855.42133	427.24005	-643.98950	-386.96246	160.33978	-982.20258	-883.22430	84.39972	-656.46063	
138	1.370	-655.73273	1336.46216	-507.96719	-666.70404	1480.21936	-781.69019	-552.35712	1403.06018	-683.46100	-768.06506	1386.75940	-603.68353	-456.51410	1212.33240	-743.31238	-878.79236	1205.96387	-743.72260	-673.20929	1140.07214	-627.48041	-667.80780	1274.42078	-850.62189	-397.76855	931.06061	-811.45996	-951.90143	963.43384	-814.01428	-324.25870	720.08936	-721.83472	-1017.10791	708.64752	-771.12341	-542.91687	833.58221	-631.23151	-819.46881	819.33197	-671.32733	-630.40961	879.78961	-923.94489	-496.40839	386.61584	-663.61377	-859.11481	426.27164	-640.95227	-398.64691	169.11960	-967.90454	-882.82990	83.10877	-657.53900	
139	1.380	-661.64038	1334.40454	-510.52530	-671.94745	1482.16699	-772.94678	-556.86499	1405.45068	-675.44843	-772.62878	1388.87524	-594.38617	-460.65814	1214.28320	-736.29590	-885.02332	1208.93018	-732.34180	-675.48419	1141.83533	-619.32947	-673.94897	1277.68945	-843.22754	-403.74680	933.23328	-805.74261	-954.53040	962.86053	-800.26117	-329.92920	723.03015	-718.77924	-1023.39343	710.98901	-755.42102	-546.46051	835.82935	-625.98480	-823.49603	821.48309	-661.72913	-636.04523	883.25641	-915.98401	-504.56366	388.46582	-643.47717	-861.09967	424.88232	-638.17908	-411.78217	177.40034	-953.66040	-882.51514	82.14111	-658.04901	
140	1.390	-663.17120	1339.37744	-489.84283	-676.94489	1483.85559	-763.84613	-561.46814	1407.51648	-666.43384	-776.72974	1390.26563	-585.39764	-465.12613	1216.69995	-731.01550	-888.14856	1209.94775	-720.50311	-677.69562	1143.40588	-611.45392	-679.44067	1278.98108	-833.26147	-408.46198	935.94098	-801.80591	-962.11066	965.54547	-788.30615	-335.17554	725.75916	-714.09906	-1030.38733	713.40118	-739.80530	-549.53717	837.91071	-620.16931	-827.80688	824.08691	-650.52631	-641.92499	886.26685	-908.67175	-512.29395	391.56638	-621.65588	-864.59570	423.22034	-634.99799	-424.03085	183.87666	-938.65063	-882.50763	82.13605	-658.01825	
141	1.400	-665.16174	1341.59167	-482.24716	-681.66064	1485.80798	-755.10602	-565.46594	1409.98083	-659.20697	-780.67017	1392.21338	-576.47278	-469.27530	1219.48291	-726.72150	-891.73016	1211.04993	-708.72589	-680.60132	1145.41956	-602.96356	-685.05481	1281.12170	-824.99231	-412.80743	937.89191	-796.29132	-967.83746	967.26428	-775.01105	-339.84814	728.48303	-708.51019	-1036.44275	715.75641	-723.86279	-551.32361	839.48047	-615.78448	-830.52222	825.86719	-638.21210	-647.87848	888.85626	-900.87073	-519.39423	397.08353	-602.05206	-866.91608	422.24985	-632.75006	-437.29639	190.21300	-921.77209	-882.25018	81.08314	-659.15607	
142	1.410	-678.84576	1334.06970	-522.48920	-686.11725	1487.91956	-746.33942	-569.48969	1411.25696	-647.56927	-782.77661	1392.41785	-566.73267	-473.04880	1221.97595	-721.73889	-895.48810	1213.17139	-697.87170	-680.72168	1146.83325	-593.40741	-691.23346	1285.82947	-818.72418	-415.69376	940.45447	-791.57654	-974.68585	969.80322	-762.33704	-344.15836	731.34180	-701.97815	-1043.25220	718.09271	-708.03839	-553.74951	841.43329	-611.34894	-834.30682	826.60120	-636.84167	-653.90576	891.34961	-894.08850	-526.60022	402.86374	-579.00391	-869.60999	421.04834	-631.65204	-450.28244	195.59140	-906.15814	-882.22534	81.07127	-659.05646	
143	1.420	-673.74835	1341.79346	-474.43802	-690.41461	1489.80066	-737.19635	-573.19031	1413.65588	-640.17902	-787.83411	1395.31592	-558.45477	-476.78781	1223.44421	-715.09937	-899.16357	1215.34546	-686.71948	-682.42395	1147.51331	-585.92810	-696.23419	1287.79346	-809.93408	-419.49185	942.59467	-786.11804	-980.21509	971.59479	-748.78479	-347.45673	733.70837	-695.08960	-1050.29309	720.84656	-690.97974	-556.15692	842.77698	-606.59729	-835.91895	828.13428	-627.93909	-659.66766	894.02557	-887.96405	-533.30170	409.57700	-563.57874	-870.60773	419.58969	-628.41895	-462.37390	197.03265	-888.23865	-882.24597	81.02960	-659.11963	
144	1.430	-676.92920	1342.45020	-466.74353	-694.41974	1491.49707	-728.01343	-576.82782	1415.50928	-631.19135	-788.15643	1394.86743	-548.10699	-480.24908	1225.69055	-710.25446	-902.10095	1216.48535	-675.41101	-683.64264	1148.21045	-578.34686	-700.18811	1287.66479	-799.67090	-422.26523	944.32556	-780.75879	-986.25995	973.86676	-735.20447	-351.14166	735.37134	-687.63831	-1055.14709	723.21930	-675.00592	-558.36493	843.82092	-602.16980	-837.46954	828.83173	-617.99152	-665.26965	896.13470	-880.38837	-537.43103	418.10855	-544.32428	-871.84137	417.36182	-625.80280	-475.10889	197.27943	-869.93811	-882.27759	81.00622	-659.23175	
145	1.440	-679.68158	1343.49451	-457.57236	-698.21869	1493.48730	-719.43799	-579.74725	1417.20325	-623.14404	-794.25250	1397.46741	-539.91809	-483.37106	1227.56982	-703.88861	-905.02777	1218.16821	-664.47742	-685.46082	1150.14111	-571.09741	-704.95178	1289.47803	-791.25928	-425.22073	946.08051	-775.08197	-992.03790	976.94629	-721.46832	-354.09207	736.78955	-679.12286	-1062.10034	725.79724	-657.53339	-562.51379	843.83997	-599.90253	-838.88824	830.49243	-608.98218	-670.59796	898.34039	-873.56287	-543.73962	424.50711	-531.26892	-872.65546	416.07159	-624.00653	-488.16623	196.00700	-850.29755	-882.32428	80.97173	-659.39709	
